<?xml version="1.0" encoding="UTF-8" standalone="no"?>
<!-- Created with Inkscape (http://www.inkscape.org/) -->

<svg
   version="1.1"
   id="svg2"
   xml:space="preserve"
   width="210.66667"
   height="27.965467"
   viewBox="0 0 210.66667 27.965467"
   sodipodi:docname="a2z.ai"
   xmlns:inkscape="http://www.inkscape.org/namespaces/inkscape"
   xmlns:sodipodi="http://sodipodi.sourceforge.net/DTD/sodipodi-0.dtd"
   xmlns="http://www.w3.org/2000/svg"
   xmlns:svg="http://www.w3.org/2000/svg"><defs
     id="defs6"><clipPath
       clipPathUnits="userSpaceOnUse"
       id="clipPath16"><path
         d="M 0,20.974 H 158 V 0 H 0 Z"
         id="path14" /></clipPath></defs><sodipodi:namedview
     id="namedview4"
     pagecolor="#ffffff"
     bordercolor="#666666"
     borderopacity="1.0"
     inkscape:pageshadow="2"
     inkscape:pageopacity="0.0"
     inkscape:pagecheckerboard="0" /><g
     id="g8"
     inkscape:groupmode="layer"
     inkscape:label="a2z"
     transform="matrix(1.3333333,0,0,-1.3333333,0,27.965467)"><g
       id="g10"><g
         id="g12"
         clip-path="url(#clipPath16)"><g
           id="g18"
           transform="translate(5.637,11.9205)"><path
             d="m 0,0 c -0.381,-0.287 -0.843,-0.471 -1.184,-0.553 -1.125,-0.245 -1.566,-0.798 -1.566,-1.78 0,-0.839 0.301,-1.534 1.044,-1.534 0.742,0 1.706,0.491 1.706,1.698 z m -5.059,2.128 v 0.266 c 0,2.537 1.707,3.397 3.794,3.397 3.293,0 3.915,-1.392 3.915,-3.376 V -3.376 C 2.65,-4.4 2.71,-4.87 2.991,-5.505 H 0.341 C 0.161,-5.157 0.08,-4.727 0,-4.359 h -0.04 c -0.642,-1.146 -1.425,-1.432 -2.75,-1.432 -1.927,0 -2.61,1.678 -2.61,3.151 0,2.067 0.823,2.906 2.73,3.438 l 1.566,0.43 C -0.281,1.453 0,1.78 0,2.517 0,3.356 -0.361,3.867 -1.285,3.867 -2.128,3.867 -2.57,3.294 -2.57,2.435 V 2.128 Z"
             style="fill:#000000;fill-opacity:1;fill-rule:nonzero;stroke:none"
             id="path20" /></g><g
           id="g22"
           transform="translate(18.685,6.416)"><path
             d="m 0,0 h -8.752 c 0,2.578 1.023,4.359 3.131,6.343 l 1.165,1.105 c 1.264,1.167 1.485,1.822 1.485,3.315 0,1.208 -0.502,1.801 -1.405,1.801 -1.446,0 -1.586,-1.289 -1.606,-2.824 h -2.77 v 0.553 c 0,2.68 1.385,4.195 4.416,4.195 2.851,0 4.256,-1.453 4.256,-3.95 0,-1.882 -0.582,-3.11 -2.208,-4.604 L -3.894,4.42 C -4.738,3.642 -5.219,2.844 -5.36,2.292 H 0 Z"
             style="fill:#000000;fill-opacity:1;fill-rule:nonzero;stroke:none"
             id="path24" /></g><g
           id="g26"
           transform="translate(20.0901,8.585)"><path
             d="M 0,0 4.316,6.548 H 0.201 V 8.84 H 7.588 V 6.671 L 3.272,0.123 h 4.316 v -2.292 l -7.588,0 z"
             style="fill:#000000;fill-opacity:1;fill-rule:nonzero;stroke:none"
             id="path28" /></g><g
           id="g30"
           transform="translate(4.879,4.6862)"><path
             d="m 0,0 c 1.093,-0.696 9.604,-5.741 17.985,0.047 0.058,0.04 0.382,0.14 0.509,-0.067 0.11,-0.167 0.05,-0.385 -0.052,-0.506 -0.817,-0.97 -4.886,-5.271 -11.793,-3.84 0,0 -3.97,0.912 -6.927,4.096 -0.029,0.03 -0.057,0.062 -0.086,0.093 0,0 -0.093,0.133 0.039,0.237 C -0.212,0.148 -0.078,0.049 0,0"
             style="fill:#fc9a1b;fill-opacity:1;fill-rule:nonzero;stroke:none"
             id="path32" /></g><g
           id="g34"
           transform="translate(35.1575,13.3139)"><path
             d="m 0,0 c 0,1.049 -0.202,2.179 -1.251,2.179 -1.372,0 -1.594,-1.21 -1.594,-3.713 0,-2.683 0.242,-3.793 1.493,-3.793 0.928,0 1.352,0.786 1.352,2.542 h 2.664 c 0,-2.845 -1.191,-4.439 -4.137,-4.439 -2.785,0 -4.157,1.352 -4.157,5.71 0,4.461 1.836,5.712 4.399,5.712 2.563,0 3.895,-1.635 3.895,-4.198 z"
             style="fill:#fc9a1b;fill-opacity:1;fill-rule:nonzero;stroke:none"
             id="path36" /></g><g
           id="g38"
           transform="translate(43.1886,7.9866)"><path
             d="M 0,0 C 1.13,0 1.493,1.11 1.493,3.814 1.493,6.518 1.13,7.628 0,7.628 -1.372,7.628 -1.493,6.034 -1.493,3.814 -1.493,1.594 -1.372,0 0,0 M 0,9.525 C 3.35,9.586 4.278,7.588 4.278,3.814 4.278,0.101 3.189,-1.897 0,-1.897 -3.35,-1.958 -4.278,0.04 -4.278,3.814 c 0,3.713 1.089,5.711 4.278,5.711"
             style="fill:#fc9a1b;fill-opacity:1;fill-rule:nonzero;stroke:none"
             id="path40" /></g><g
           id="g42"
           transform="translate(48.5555,17.2289)"><path
             d="m 0,0 h 2.664 v -1.452 h 0.04 c 0.566,1.049 1.352,1.735 2.502,1.735 0.162,0 0.344,-0.02 0.505,-0.04 v -2.664 c -0.282,0.02 -0.585,0.04 -0.868,0.04 -0.969,0 -2.058,-0.505 -2.058,-1.958 v -6.518 H 0 Z"
             style="fill:#fc9a1b;fill-opacity:1;fill-rule:nonzero;stroke:none"
             id="path44" /></g><g
           id="g46"
           transform="translate(59.5329,8.2287)"><path
             d="M 0,0 C 1.211,0 1.453,1.21 1.453,3.572 1.453,5.933 1.211,7.144 0,7.144 -1.231,7.144 -1.473,5.933 -1.473,3.572 -1.473,1.21 -1.231,0 0,0 m -4.258,9 h 2.664 V 7.85 h 0.04 c 0.606,1.009 1.372,1.433 2.462,1.433 2.281,0 3.33,-1.675 3.33,-5.711 0,-4.037 -1.049,-5.711 -3.33,-5.711 -1.05,0 -1.756,0.424 -2.341,1.291 h -0.04 v -4.56 h -2.785 z"
             style="fill:#fc9a1b;fill-opacity:1;fill-rule:nonzero;stroke:none"
             id="path48" /></g><g
           id="g50"
           transform="translate(69.2795,7.9866)"><path
             d="M 0,0 C 1.13,0 1.493,1.11 1.493,3.814 1.493,6.518 1.13,7.628 0,7.628 -1.373,7.628 -1.493,6.034 -1.493,3.814 -1.493,1.594 -1.373,0 0,0 M 0,9.525 C 3.35,9.586 4.278,7.588 4.278,3.814 4.278,0.101 3.188,-1.897 0,-1.897 -3.35,-1.958 -4.278,0.04 -4.278,3.814 c 0,3.713 1.089,5.711 4.278,5.711"
             style="fill:#fc9a1b;fill-opacity:1;fill-rule:nonzero;stroke:none"
             id="path52" /></g><g
           id="g54"
           transform="translate(74.6463,17.2289)"><path
             d="m 0,0 h 2.664 v -1.452 h 0.041 c 0.564,1.049 1.352,1.735 2.502,1.735 0.161,0 0.343,-0.02 0.505,-0.04 v -2.664 c -0.283,0.02 -0.586,0.04 -0.868,0.04 -0.969,0 -2.059,-0.505 -2.059,-1.958 v -6.518 H 0 Z"
             style="fill:#fc9a1b;fill-opacity:1;fill-rule:nonzero;stroke:none"
             id="path56" /></g><g
           id="g58"
           transform="translate(86.4315,11.8003)"><path
             d="m 0,0 c -0.384,-0.282 -0.848,-0.464 -1.191,-0.544 -1.13,-0.243 -1.574,-0.788 -1.574,-1.756 0,-0.828 0.303,-1.514 1.05,-1.514 0.746,0 1.715,0.485 1.715,1.675 z m -5.086,2.099 v 0.262 c 0,2.503 1.716,3.351 3.815,3.351 3.309,0 3.935,-1.373 3.935,-3.331 v -5.71 c 0,-1.01 0.061,-1.474 0.343,-2.099 H 0.343 C 0.162,-5.085 0.08,-4.661 0,-4.299 h -0.04 c -0.646,-1.129 -1.433,-1.412 -2.765,-1.412 -1.938,0 -2.624,1.655 -2.624,3.108 0,2.038 0.827,2.865 2.745,3.39 L -1.11,1.211 C -0.282,1.433 0,1.756 0,2.483 0,3.31 -0.363,3.814 -1.292,3.814 -2.139,3.814 -2.583,3.249 -2.583,2.401 V 2.099 Z"
             style="fill:#fc9a1b;fill-opacity:1;fill-rule:nonzero;stroke:none"
             id="path60" /></g><g
           id="g62"
           transform="translate(91.6769,20.3372)"><path
             d="M 0,0 H 2.785 V -3.108 H 4.4 V -5.005 H 2.785 v -5.873 c 0,-0.848 0.182,-1.19 0.989,-1.19 0.222,0 0.444,0.02 0.626,0.04 v -1.937 C 3.794,-14.026 3.229,-14.087 2.583,-14.087 0.404,-14.087 0,-13.42 0,-11.221 v 6.216 h -1.412 v 1.897 H 0 Z"
             style="fill:#fc9a1b;fill-opacity:1;fill-rule:nonzero;stroke:none"
             id="path64" /></g><path
           d="M 97.145,17.229 H 99.93 V 6.372 h -2.785 z m 0,3.714 h 2.785 v -2.381 h -2.785 z"
           style="fill:#fc9a1b;fill-opacity:1;fill-rule:nonzero;stroke:none"
           id="path66" /><g
           id="g68"
           transform="translate(105.3982,7.9866)"><path
             d="M 0,0 C 1.131,0 1.493,1.11 1.493,3.814 1.493,6.518 1.131,7.628 0,7.628 -1.372,7.628 -1.493,6.034 -1.493,3.814 -1.493,1.594 -1.372,0 0,0 M 0,9.525 C 3.35,9.586 4.278,7.588 4.278,3.814 4.278,0.101 3.189,-1.897 0,-1.897 -3.35,-1.958 -4.278,0.04 -4.278,3.814 c 0,3.713 1.09,5.711 4.278,5.711"
             style="fill:#fc9a1b;fill-opacity:1;fill-rule:nonzero;stroke:none"
             id="path70" /></g><g
           id="g72"
           transform="translate(110.765,17.2289)"><path
             d="m 0,0 h 2.664 v -1.271 h 0.041 c 0.585,1.07 1.594,1.554 2.764,1.554 1.736,0 2.765,-0.949 2.765,-3.088 v -8.052 H 5.449 v 7.487 c 0,1.09 -0.363,1.514 -1.191,1.514 -0.948,0 -1.473,-0.586 -1.473,-1.797 v -7.204 H 0 Z"
             style="fill:#fc9a1b;fill-opacity:1;fill-rule:nonzero;stroke:none"
             id="path74" /></g><path
           d="m 123.276,6.372 h -2.664 V 9.52 h 2.664 z"
           style="fill:#000000;fill-opacity:1;fill-rule:nonzero;stroke:none"
           id="path76" /><g
           id="g78"
           transform="translate(130.521,13.3139)"><path
             d="m 0,0 c 0,1.049 -0.202,2.179 -1.251,2.179 -1.373,0 -1.595,-1.21 -1.595,-3.713 0,-2.683 0.242,-3.793 1.493,-3.793 0.929,0 1.353,0.786 1.353,2.542 h 2.664 c 0,-2.845 -1.191,-4.439 -4.137,-4.439 -2.785,0 -4.158,1.352 -4.158,5.71 0,4.461 1.837,5.712 4.4,5.712 2.563,0 3.895,-1.635 3.895,-4.198 z"
             style="fill:#000000;fill-opacity:1;fill-rule:nonzero;stroke:none"
             id="path80" /></g><g
           id="g82"
           transform="translate(138.5515,7.9866)"><path
             d="M 0,0 C 1.131,0 1.493,1.11 1.493,3.814 1.493,6.518 1.131,7.628 0,7.628 -1.372,7.628 -1.493,6.034 -1.493,3.814 -1.493,1.594 -1.372,0 0,0 M 0,9.525 C 3.35,9.586 4.278,7.588 4.278,3.814 4.278,0.101 3.189,-1.897 0,-1.897 -3.35,-1.958 -4.278,0.04 -4.278,3.814 c 0,3.713 1.09,5.711 4.278,5.711"
             style="fill:#000000;fill-opacity:1;fill-rule:nonzero;stroke:none"
             id="path84" /></g><g
           id="g86"
           transform="translate(144.322,17.2289)"><path
             d="m 0,0 h 2.664 v -1.11 h 0.041 c 0.706,0.989 1.573,1.393 2.744,1.393 1.272,0 2.2,-0.626 2.502,-1.735 h 0.041 c 0.423,1.15 1.433,1.735 2.744,1.735 1.837,0 2.705,-1.151 2.705,-3.249 v -7.891 h -2.785 v 7.588 c 0,0.908 -0.303,1.413 -1.09,1.413 -0.888,0 -1.453,-0.606 -1.453,-1.857 v -7.144 H 5.328 v 7.588 c 0,0.908 -0.302,1.413 -1.09,1.413 -0.888,0 -1.453,-0.606 -1.453,-1.857 v -7.144 H 0 Z"
             style="fill:#000000;fill-opacity:1;fill-rule:nonzero;stroke:none"
             id="path88" /></g></g></g></g></svg>
