<?xml version="1.0" encoding="UTF-8" standalone="no"?>
<!-- Created with Inkscape (http://www.inkscape.org/) -->

<svg
   version="1.1"
   id="svg2"
   xml:space="preserve"
   width="431.00534"
   height="57.214931"
   viewBox="0 0 431.00534 57.214931"
   sodipodi:docname="a2z.ai"
   xmlns:inkscape="http://www.inkscape.org/namespaces/inkscape"
   xmlns:sodipodi="http://sodipodi.sourceforge.net/DTD/sodipodi-0.dtd"
   xmlns="http://www.w3.org/2000/svg"
   xmlns:svg="http://www.w3.org/2000/svg"><defs
     id="defs6"><clipPath
       clipPathUnits="userSpaceOnUse"
       id="clipPath16"><path
         d="M 0,42.911 H 323.254 V 0 H 0 Z"
         id="path14" /></clipPath></defs><sodipodi:namedview
     id="namedview4"
     pagecolor="#ffffff"
     bordercolor="#666666"
     borderopacity="1.0"
     inkscape:pageshadow="2"
     inkscape:pageopacity="0.0"
     inkscape:pagecheckerboard="0" /><g
     id="g8"
     inkscape:groupmode="layer"
     inkscape:label="a2z"
     transform="matrix(1.3333333,0,0,-1.3333333,0,57.214933)"><g
       id="g10"><g
         id="g12"
         clip-path="url(#clipPath16)"><g
           id="g18"
           transform="translate(11.0812,24.3972)"><path
             d="m 0,0 c -0.783,-0.588 -1.73,-0.966 -2.43,-1.134 -2.307,-0.504 -3.213,-1.638 -3.213,-3.653 0,-1.722 0.617,-3.149 2.142,-3.149 1.524,0 3.501,1.007 3.501,3.485 z m -10.381,4.367 v 0.546 c 0,5.207 3.502,6.97 7.786,6.97 6.756,0 8.033,-2.855 8.033,-6.928 V -6.929 c 0,-2.099 0.123,-3.065 0.7,-4.367 H 0.7 C 0.33,-10.582 0.165,-9.7 0,-8.944 h -0.082 c -1.319,-2.352 -2.925,-2.94 -5.644,-2.94 -3.955,0 -5.355,3.444 -5.355,6.467 0,4.241 1.689,5.963 5.602,7.054 l 3.213,0.882 C -0.577,2.981 0,3.653 0,5.165 c 0,1.721 -0.741,2.771 -2.637,2.771 -1.73,0 -2.636,-1.176 -2.636,-2.939 v -0.63 z"
             style="fill:#000000;fill-opacity:1;fill-rule:nonzero;stroke:none"
             id="path20" /></g><g
           id="g22"
           transform="translate(37.8566,13.1016)"><path
             d="m 0,0 h -17.96 c 0,5.291 2.1,8.944 6.426,13.017 l 2.389,2.267 c 2.595,2.394 3.048,3.738 3.048,6.803 0,2.478 -1.029,3.695 -2.883,3.695 -2.966,0 -3.254,-2.645 -3.296,-5.794 h -5.684 v 1.134 c 0,5.5 2.842,8.608 9.062,8.608 5.85,0 8.733,-2.982 8.733,-8.105 0,-3.863 -1.194,-6.382 -4.531,-9.448 L -7.992,9.07 C -9.722,7.474 -10.71,5.837 -10.999,4.703 H 0 Z"
             style="fill:#000000;fill-opacity:1;fill-rule:nonzero;stroke:none"
             id="path24" /></g><g
           id="g26"
           transform="translate(40.7399,17.5526)"><path
             d="M 0,0 8.857,13.437 H 0.412 V 18.14 H 15.571 V 13.689 L 6.715,0.252 h 8.856 V -4.451 H 0 Z"
             style="fill:#000000;fill-opacity:1;fill-rule:nonzero;stroke:none"
             id="path28" /></g><g
           id="g30"
           transform="translate(9.5257,9.552)"><path
             d="m 0,0 c 2.243,-1.427 19.708,-11.781 36.905,0.096 0.121,0.083 0.786,0.287 1.046,-0.136 0.226,-0.343 0.102,-0.792 -0.107,-1.04 -1.676,-1.991 -10.027,-10.815 -24.201,-7.879 0,0 -8.145,1.871 -14.214,8.404 -0.058,0.063 -0.117,0.127 -0.175,0.191 0,0 -0.191,0.275 0.08,0.488 C -0.435,0.303 -0.16,0.101 0,0"
             style="fill:#fc9a1b;fill-opacity:1;fill-rule:nonzero;stroke:none"
             id="path32" /></g><g
           id="g34"
           transform="translate(71.6592,27.2564)"><path
             d="m 0,0 c 0,2.154 -0.414,4.472 -2.567,4.472 -2.816,0 -3.272,-2.484 -3.272,-7.619 0,-5.507 0.497,-7.785 3.065,-7.785 1.904,0 2.774,1.614 2.774,5.217 h 5.467 c 0,-5.839 -2.444,-9.11 -8.49,-9.11 -5.715,0 -8.531,2.774 -8.531,11.719 0,9.153 3.768,11.721 9.028,11.721 5.26,0 7.993,-3.355 7.993,-8.615 z"
             style="fill:#fc9a1b;fill-opacity:1;fill-rule:nonzero;stroke:none"
             id="path36" /></g><g
           id="g38"
           transform="translate(88.1396,16.3244)"><path
             d="m 0,0 c 2.319,0 3.065,2.278 3.065,7.826 0,5.55 -0.746,7.828 -3.065,7.828 -2.816,0 -3.065,-3.271 -3.065,-7.828 C -3.065,3.271 -2.816,0 0,0 M 0,19.547 C 6.874,19.671 8.78,15.571 8.78,7.826 8.78,0.207 6.544,-3.893 0,-3.893 -6.874,-4.018 -8.78,0.082 -8.78,7.826 c 0,7.62 2.237,11.721 8.78,11.721"
             style="fill:#fc9a1b;fill-opacity:1;fill-rule:nonzero;stroke:none"
             id="path40" /></g><g
           id="g42"
           transform="translate(99.1528,35.2902)"><path
             d="m 0,0 h 5.466 v -2.981 h 0.083 c 1.16,2.154 2.774,3.562 5.134,3.562 0.332,0 0.705,-0.042 1.037,-0.083 v -5.467 c -0.58,0.041 -1.202,0.082 -1.781,0.082 -1.989,0 -4.225,-1.034 -4.225,-4.017 V -22.279 H 0 Z"
             style="fill:#fc9a1b;fill-opacity:1;fill-rule:nonzero;stroke:none"
             id="path44" /></g><g
           id="g46"
           transform="translate(121.6792,16.8214)"><path
             d="M 0,0 C 2.485,0 2.982,2.484 2.982,7.329 2.982,12.174 2.485,14.66 0,14.66 -2.527,14.66 -3.023,12.174 -3.023,7.329 -3.023,2.484 -2.527,0 0,0 m -8.738,18.469 h 5.467 v -2.36 h 0.082 c 1.243,2.071 2.816,2.941 5.052,2.941 4.68,0 6.834,-3.438 6.834,-11.721 0,-8.283 -2.154,-11.719 -6.834,-11.719 -2.153,0 -3.602,0.87 -4.804,2.65 h -0.082 v -9.359 h -5.715 z"
             style="fill:#fc9a1b;fill-opacity:1;fill-rule:nonzero;stroke:none"
             id="path48" /></g><g
           id="g50"
           transform="translate(141.6799,16.3244)"><path
             d="m 0,0 c 2.319,0 3.063,2.278 3.063,7.826 0,5.55 -0.744,7.828 -3.063,7.828 -2.817,0 -3.065,-3.271 -3.065,-7.828 C -3.065,3.271 -2.817,0 0,0 M 0,19.547 C 6.874,19.671 8.778,15.571 8.778,7.826 8.778,0.207 6.542,-3.893 0,-3.893 -6.875,-4.018 -8.78,0.082 -8.78,7.826 c 0,7.62 2.237,11.721 8.78,11.721"
             style="fill:#fc9a1b;fill-opacity:1;fill-rule:nonzero;stroke:none"
             id="path52" /></g><g
           id="g54"
           transform="translate(152.6929,35.2902)"><path
             d="M 0,0 H 5.467 V -2.981 H 5.55 c 1.159,2.154 2.774,3.562 5.136,3.562 0.33,0 0.703,-0.042 1.035,-0.083 v -5.467 c -0.58,0.041 -1.202,0.082 -1.781,0.082 -1.989,0 -4.225,-1.034 -4.225,-4.017 V -22.279 H 0 Z"
             style="fill:#fc9a1b;fill-opacity:1;fill-rule:nonzero;stroke:none"
             id="path56" /></g><g
           id="g58"
           transform="translate(176.8769,24.1504)"><path
             d="m 0,0 c -0.787,-0.579 -1.74,-0.952 -2.444,-1.117 -2.319,-0.497 -3.23,-1.616 -3.23,-3.603 0,-1.698 0.621,-3.106 2.154,-3.106 1.532,0 3.52,0.994 3.52,3.436 z m -10.436,4.307 v 0.539 c 0,5.135 3.52,6.875 7.827,6.875 6.791,0 8.075,-2.817 8.075,-6.834 V -6.832 c 0,-2.071 0.125,-3.024 0.705,-4.307 H 0.703 C 0.332,-10.435 0.165,-9.565 0,-8.821 h -0.082 c -1.326,-2.318 -2.942,-2.898 -5.674,-2.898 -3.976,0 -5.384,3.395 -5.384,6.377 0,4.183 1.697,5.88 5.631,6.958 l 3.232,0.869 C -0.579,2.941 0,3.603 0,5.094 c 0,1.699 -0.746,2.734 -2.65,2.734 -1.74,0 -2.651,-1.16 -2.651,-2.9 V 4.307 Z"
             style="fill:#fc9a1b;fill-opacity:1;fill-rule:nonzero;stroke:none"
             id="path60" /></g><g
           id="g62"
           transform="translate(187.6408,41.6687)"><path
             d="M 0,0 H 5.715 V -6.378 H 9.029 V -10.27 H 5.715 v -12.052 c 0,-1.74 0.373,-2.443 2.03,-2.443 0.455,0 0.911,0.041 1.284,0.083 v -3.976 C 7.786,-28.782 6.626,-28.907 5.301,-28.907 0.829,-28.907 0,-27.539 0,-23.025 v 12.755 h -2.898 v 3.892 H 0 Z"
             style="fill:#fc9a1b;fill-opacity:1;fill-rule:nonzero;stroke:none"
             id="path64" /></g><path
           d="m 198.862,35.29 h 5.715 V 13.011 h -5.715 z m 0,7.621 h 5.715 v -4.887 h -5.715 z"
           style="fill:#fc9a1b;fill-opacity:1;fill-rule:nonzero;stroke:none"
           id="path66" /><g
           id="g68"
           transform="translate(215.7979,16.3244)"><path
             d="m 0,0 c 2.32,0 3.065,2.278 3.065,7.826 0,5.55 -0.745,7.828 -3.065,7.828 -2.816,0 -3.063,-3.271 -3.063,-7.828 C -3.063,3.271 -2.816,0 0,0 M 0,19.547 C 6.875,19.671 8.78,15.571 8.78,7.826 8.78,0.207 6.543,-3.893 0,-3.893 -6.874,-4.018 -8.778,0.082 -8.778,7.826 c 0,7.62 2.236,11.721 8.778,11.721"
             style="fill:#fc9a1b;fill-opacity:1;fill-rule:nonzero;stroke:none"
             id="path70" /></g><g
           id="g72"
           transform="translate(226.8109,35.2902)"><path
             d="M 0,0 H 5.467 V -2.608 H 5.55 c 1.201,2.195 3.271,3.189 5.674,3.189 3.561,0 5.674,-1.947 5.674,-6.337 v -16.523 h -5.716 v 15.364 c 0,2.236 -0.745,3.106 -2.443,3.106 -1.946,0 -3.024,-1.201 -3.024,-3.687 V -22.279 H 0 Z"
             style="fill:#fc9a1b;fill-opacity:1;fill-rule:nonzero;stroke:none"
             id="path74" /></g><path
           d="m 252.484,13.011 h -5.466 v 6.461 h 5.466 z"
           style="fill:#000000;fill-opacity:1;fill-rule:nonzero;stroke:none"
           id="path76" /><g
           id="g78"
           transform="translate(267.3516,27.2564)"><path
             d="m 0,0 c 0,2.154 -0.414,4.472 -2.568,4.472 -2.817,0 -3.272,-2.484 -3.272,-7.619 0,-5.507 0.496,-7.785 3.064,-7.785 1.906,0 2.776,1.614 2.776,5.217 h 5.466 c 0,-5.839 -2.444,-9.11 -8.489,-9.11 -5.715,0 -8.532,2.774 -8.532,11.719 0,9.153 3.769,11.721 9.028,11.721 5.26,0 7.993,-3.355 7.993,-8.615 z"
             style="fill:#000000;fill-opacity:1;fill-rule:nonzero;stroke:none"
             id="path80" /></g><g
           id="g82"
           transform="translate(283.8307,16.3244)"><path
             d="m 0,0 c 2.32,0 3.065,2.278 3.065,7.826 0,5.55 -0.745,7.828 -3.065,7.828 -2.816,0 -3.063,-3.271 -3.063,-7.828 C -3.063,3.271 -2.816,0 0,0 M 0,19.547 C 6.875,19.671 8.78,15.571 8.78,7.826 8.78,0.207 6.543,-3.893 0,-3.893 -6.874,-4.018 -8.778,0.082 -8.778,7.826 c 0,7.62 2.236,11.721 8.778,11.721"
             style="fill:#000000;fill-opacity:1;fill-rule:nonzero;stroke:none"
             id="path84" /></g><g
           id="g86"
           transform="translate(295.6722,35.2902)"><path
             d="M 0,0 H 5.467 V -2.277 H 5.55 c 1.449,2.029 3.23,2.858 5.632,2.858 2.61,0 4.514,-1.284 5.135,-3.562 h 0.082 c 0.87,2.36 2.941,3.562 5.633,3.562 3.769,0 5.55,-2.362 5.55,-6.668 v -16.192 h -5.715 v 15.57 c 0,1.864 -0.622,2.9 -2.237,2.9 -1.822,0 -2.982,-1.243 -2.982,-3.811 v -14.659 h -5.715 v 15.57 c 0,1.864 -0.62,2.9 -2.236,2.9 -1.822,0 -2.982,-1.243 -2.982,-3.811 V -22.279 H 0 Z"
             style="fill:#000000;fill-opacity:1;fill-rule:nonzero;stroke:none"
             id="path88" /></g></g></g></g></svg>
