<?xml version="1.0" encoding="UTF-8" standalone="no"?>
<!-- Created with Inkscape (http://www.inkscape.org/) -->

<svg
   version="1.1"
   id="svg2"
   xml:space="preserve"
   width="186.888"
   height="24.6936"
   viewBox="0 0 186.888 24.6936"
   sodipodi:docname="a2z corp.ai"
   xmlns:inkscape="http://www.inkscape.org/namespaces/inkscape"
   xmlns:sodipodi="http://sodipodi.sourceforge.net/DTD/sodipodi-0.dtd"
   xmlns="http://www.w3.org/2000/svg"
   xmlns:svg="http://www.w3.org/2000/svg"><defs
     id="defs6"><clipPath
       clipPathUnits="userSpaceOnUse"
       id="clipPath16"><path
         d="M 0,18.52 H 140.166 V 0 H 0 Z"
         id="path14" /></clipPath></defs><sodipodi:namedview
     id="namedview4"
     pagecolor="#ffffff"
     bordercolor="#666666"
     borderopacity="1.0"
     inkscape:pageshadow="2"
     inkscape:pageopacity="0.0"
     inkscape:pagecheckerboard="0" /><g
     id="g8"
     inkscape:groupmode="layer"
     inkscape:label="a2z corp"
     transform="matrix(1.3333333,0,0,-1.3333333,0,24.6936)"><g
       id="g10"><g
         id="g12"
         clip-path="url(#clipPath16)"><g
           id="g18"
           transform="translate(4.7825,10.5297)"><path
             d="m 0,0 c -0.338,-0.254 -0.747,-0.417 -1.049,-0.489 -0.996,-0.218 -1.387,-0.707 -1.387,-1.577 0,-0.743 0.267,-1.359 0.925,-1.359 0.658,0 1.511,0.435 1.511,1.504 z M -4.48,1.885 V 2.12 c 0,2.248 1.511,3.009 3.36,3.009 2.916,0 3.467,-1.233 3.467,-2.991 V -2.99 c 0,-0.907 0.053,-1.323 0.302,-1.885 H 0.302 C 0.142,-4.567 0.071,-4.186 0,-3.86 h -0.036 c -0.568,-1.015 -1.262,-1.269 -2.435,-1.269 -1.707,0 -2.312,1.486 -2.312,2.791 0,1.83 0.729,2.574 2.418,3.045 l 1.387,0.38 C -0.249,1.287 0,1.577 0,2.229 0,2.972 -0.32,3.425 -1.138,3.425 -1.885,3.425 -2.276,2.918 -2.276,2.157 V 1.885 Z"
             style="fill:#000000;fill-opacity:1;fill-rule:nonzero;stroke:none"
             id="path20" /></g><g
           id="g22"
           transform="translate(16.3387,5.6545)"><path
             d="m 0,0 h -7.752 c 0,2.283 0.907,3.86 2.774,5.618 l 1.031,0.979 c 1.12,1.033 1.316,1.613 1.316,2.936 0,1.069 -0.445,1.595 -1.245,1.595 -1.28,0 -1.404,-1.142 -1.422,-2.501 h -2.454 v 0.489 c 0,2.374 1.227,3.715 3.912,3.715 2.524,0 3.769,-1.287 3.769,-3.498 0,-1.667 -0.516,-2.754 -1.956,-4.077 L -3.449,3.915 C -4.196,3.226 -4.623,2.519 -4.747,2.03 H 0 Z"
             style="fill:#000000;fill-opacity:1;fill-rule:nonzero;stroke:none"
             id="path24" /></g><g
           id="g26"
           transform="translate(17.5831,7.5755)"><path
             d="M 0,0 3.822,5.799 H 0.178 v 2.03 H 6.72 V 5.908 L 2.898,0.109 H 6.72 v -2.03 H 0 Z"
             style="fill:#000000;fill-opacity:1;fill-rule:nonzero;stroke:none"
             id="path28" /></g><g
           id="g30"
           transform="translate(4.1112,4.1225)"><path
             d="m 0,0 c 0.968,-0.616 8.506,-5.084 15.928,0.041 0.052,0.036 0.339,0.124 0.451,-0.058 0.098,-0.148 0.045,-0.342 -0.046,-0.449 -0.723,-0.859 -4.327,-4.668 -10.445,-3.401 0,0 -3.515,0.808 -6.134,3.628 -0.026,0.027 -0.051,0.054 -0.076,0.082 0,0 -0.082,0.118 0.035,0.21 C -0.188,0.131 -0.069,0.044 0,0"
             style="fill:#fc9a1b;fill-opacity:1;fill-rule:nonzero;stroke:none"
             id="path32" /></g><g
           id="g34"
           transform="translate(31.5788,11.7637)"><path
             d="m 0,0 c 0,0.929 -0.179,1.93 -1.108,1.93 -1.215,0 -1.412,-1.072 -1.412,-3.288 0,-2.377 0.214,-3.36 1.323,-3.36 0.822,0 1.197,0.697 1.197,2.251 h 2.359 c 0,-2.52 -1.054,-3.931 -3.664,-3.931 -2.466,0 -3.682,1.197 -3.682,5.057 0,3.951 1.627,5.059 3.897,5.059 C 1.18,3.718 2.359,2.27 2.359,0 Z"
             style="fill:#fc9a1b;fill-opacity:1;fill-rule:nonzero;stroke:none"
             id="path36" /></g><g
           id="g38"
           transform="translate(38.6916,7.0455)"><path
             d="M 0,0 C 1.001,0 1.323,0.983 1.323,3.378 1.323,5.773 1.001,6.756 0,6.756 -1.215,6.756 -1.323,5.344 -1.323,3.378 -1.323,1.412 -1.215,0 0,0 M 0,8.436 C 2.967,8.49 3.789,6.72 3.789,3.378 3.789,0.089 2.824,-1.68 0,-1.68 c -2.967,-0.054 -3.789,1.716 -3.789,5.058 0,3.288 0.965,5.058 3.789,5.058"
             style="fill:#fc9a1b;fill-opacity:1;fill-rule:nonzero;stroke:none"
             id="path40" /></g><g
           id="g42"
           transform="translate(43.4448,15.231)"><path
             d="m 0,0 h 2.359 v -1.286 h 0.036 c 0.501,0.929 1.197,1.537 2.216,1.537 0.143,0 0.304,-0.018 0.447,-0.036 v -2.36 c -0.25,0.018 -0.518,0.036 -0.768,0.036 -0.859,0 -1.824,-0.447 -1.824,-1.734 V -9.616 H 0 Z"
             style="fill:#fc9a1b;fill-opacity:1;fill-rule:nonzero;stroke:none"
             id="path44" /></g><g
           id="g46"
           transform="translate(53.1671,7.26)"><path
             d="M 0,0 C 1.073,0 1.287,1.072 1.287,3.163 1.287,5.254 1.073,6.327 0,6.327 -1.09,6.327 -1.305,5.254 -1.305,3.163 -1.305,1.072 -1.09,0 0,0 m -3.771,7.971 h 2.359 V 6.952 h 0.036 c 0.536,0.894 1.215,1.27 2.18,1.27 2.02,0 2.95,-1.484 2.95,-5.059 0,-3.575 -0.93,-5.058 -2.95,-5.058 -0.929,0 -1.555,0.376 -2.073,1.144 H -1.305 V -4.79 h -2.466 z"
             style="fill:#fc9a1b;fill-opacity:1;fill-rule:nonzero;stroke:none"
             id="path48" /></g><g
           id="g50"
           transform="translate(61.7993,7.0455)"><path
             d="M 0,0 C 1.001,0 1.322,0.983 1.322,3.378 1.322,5.773 1.001,6.756 0,6.756 -1.216,6.756 -1.323,5.344 -1.323,3.378 -1.323,1.412 -1.216,0 0,0 M 0,8.436 C 2.967,8.49 3.789,6.72 3.789,3.378 3.789,0.089 2.824,-1.68 0,-1.68 c -2.967,-0.054 -3.789,1.716 -3.789,5.058 0,3.288 0.965,5.058 3.789,5.058"
             style="fill:#fc9a1b;fill-opacity:1;fill-rule:nonzero;stroke:none"
             id="path52" /></g><g
           id="g54"
           transform="translate(66.5524,15.231)"><path
             d="m 0,0 h 2.36 v -1.286 h 0.035 c 0.5,0.929 1.198,1.537 2.217,1.537 0.142,0 0.303,-0.018 0.447,-0.036 v -2.36 C 4.808,-2.127 4.54,-2.109 4.29,-2.109 3.432,-2.109 2.467,-2.556 2.467,-3.843 V -9.616 H 0 Z"
             style="fill:#fc9a1b;fill-opacity:1;fill-rule:nonzero;stroke:none"
             id="path56" /></g><g
           id="g58"
           transform="translate(76.9901,10.4232)"><path
             d="m 0,0 c -0.34,-0.25 -0.751,-0.411 -1.055,-0.482 -1.001,-0.215 -1.394,-0.698 -1.394,-1.555 0,-0.733 0.268,-1.341 0.93,-1.341 0.661,0 1.519,0.429 1.519,1.483 z m -4.504,1.859 v 0.232 c 0,2.217 1.519,2.968 3.378,2.968 2.931,0 3.485,-1.216 3.485,-2.95 v -5.058 c 0,-0.894 0.054,-1.305 0.304,-1.859 H 0.303 C 0.143,-4.504 0.071,-4.128 0,-3.807 h -0.036 c -0.572,-1.001 -1.269,-1.251 -2.448,-1.251 -1.716,0 -2.324,1.465 -2.324,2.752 0,1.806 0.732,2.538 2.431,3.003 l 1.394,0.376 C -0.25,1.269 0,1.555 0,2.199 c 0,0.733 -0.322,1.179 -1.144,1.179 -0.751,0 -1.144,-0.5 -1.144,-1.251 V 1.859 Z"
             style="fill:#fc9a1b;fill-opacity:1;fill-rule:nonzero;stroke:none"
             id="path60" /></g><g
           id="g62"
           transform="translate(81.6358,17.984)"><path
             d="m 0,0 h 2.467 v -2.753 h 1.43 v -1.68 h -1.43 v -5.201 c 0,-0.751 0.161,-1.054 0.876,-1.054 0.196,0 0.393,0.017 0.554,0.035 v -1.716 C 3.36,-12.422 2.86,-12.476 2.288,-12.476 0.358,-12.476 0,-11.886 0,-9.938 v 5.505 h -1.251 v 1.68 H 0 Z"
             style="fill:#fc9a1b;fill-opacity:1;fill-rule:nonzero;stroke:none"
             id="path64" /></g><path
           d="m 86.479,15.231 h 2.467 V 5.615 h -2.467 z m 0,3.289 h 2.467 v -2.109 h -2.467 z"
           style="fill:#fc9a1b;fill-opacity:1;fill-rule:nonzero;stroke:none"
           id="path66" /><g
           id="g68"
           transform="translate(93.7882,7.0455)"><path
             d="M 0,0 C 1.001,0 1.323,0.983 1.323,3.378 1.323,5.773 1.001,6.756 0,6.756 -1.215,6.756 -1.322,5.344 -1.322,3.378 -1.322,1.412 -1.215,0 0,0 M 0,8.436 C 2.967,8.49 3.789,6.72 3.789,3.378 3.789,0.089 2.824,-1.68 0,-1.68 c -2.967,-0.054 -3.789,1.716 -3.789,5.058 0,3.288 0.965,5.058 3.789,5.058"
             style="fill:#fc9a1b;fill-opacity:1;fill-rule:nonzero;stroke:none"
             id="path70" /></g><g
           id="g72"
           transform="translate(98.5414,15.231)"><path
             d="m 0,0 h 2.36 v -1.125 h 0.035 c 0.519,0.947 1.412,1.376 2.449,1.376 1.537,0 2.449,-0.841 2.449,-2.735 V -9.616 H 4.826 v 6.632 c 0,0.965 -0.322,1.34 -1.055,1.34 -0.839,0 -1.304,-0.518 -1.304,-1.591 V -9.616 H 0 Z"
             style="fill:#fc9a1b;fill-opacity:1;fill-rule:nonzero;stroke:none"
             id="path74" /></g><path
           d="m 109.622,5.615 h -2.359 v 2.788 h 2.359 z"
           style="fill:#000000;fill-opacity:1;fill-rule:nonzero;stroke:none"
           id="path76" /><g
           id="g78"
           transform="translate(116.0385,11.7637)"><path
             d="m 0,0 c 0,0.929 -0.179,1.93 -1.108,1.93 -1.216,0 -1.413,-1.072 -1.413,-3.288 0,-2.377 0.215,-3.36 1.323,-3.36 0.823,0 1.198,0.697 1.198,2.251 h 2.359 c 0,-2.52 -1.055,-3.931 -3.664,-3.931 -2.466,0 -3.682,1.197 -3.682,5.057 0,3.951 1.627,5.059 3.897,5.059 C 1.18,3.718 2.359,2.27 2.359,0 Z"
             style="fill:#000000;fill-opacity:1;fill-rule:nonzero;stroke:none"
             id="path80" /></g><g
           id="g82"
           transform="translate(123.1508,7.0455)"><path
             d="M 0,0 C 1.001,0 1.323,0.983 1.323,3.378 1.323,5.773 1.001,6.756 0,6.756 -1.215,6.756 -1.322,5.344 -1.322,3.378 -1.322,1.412 -1.215,0 0,0 M 0,8.436 C 2.967,8.49 3.789,6.72 3.789,3.378 3.789,0.089 2.824,-1.68 0,-1.68 c -2.967,-0.054 -3.789,1.716 -3.789,5.058 0,3.288 0.965,5.058 3.789,5.058"
             style="fill:#000000;fill-opacity:1;fill-rule:nonzero;stroke:none"
             id="path84" /></g><g
           id="g86"
           transform="translate(128.2615,15.231)"><path
             d="m 0,0 h 2.36 v -0.983 h 0.035 c 0.626,0.876 1.394,1.234 2.431,1.234 1.126,0 1.948,-0.554 2.216,-1.537 h 0.036 c 0.375,1.018 1.269,1.537 2.431,1.537 1.627,0 2.395,-1.02 2.395,-2.878 V -9.616 H 9.438 v 6.721 c 0,0.804 -0.269,1.251 -0.966,1.251 -0.786,0 -1.287,-0.536 -1.287,-1.645 V -9.616 H 4.719 v 6.721 c 0,0.804 -0.268,1.251 -0.965,1.251 -0.787,0 -1.287,-0.536 -1.287,-1.645 V -9.616 H 0 Z"
             style="fill:#000000;fill-opacity:1;fill-rule:nonzero;stroke:none"
             id="path88" /></g></g></g></g></svg>
