<?xml version="1.0" encoding="UTF-8" standalone="no"?>
<!-- Created with Inkscape (http://www.inkscape.org/) -->

<svg
   version="1.1"
   id="svg2"
   xml:space="preserve"
   width="337.98666"
   height="44.658401"
   viewBox="0 0 337.98666 44.658401"
   sodipodi:docname="a2z corp.ai"
   xmlns:inkscape="http://www.inkscape.org/namespaces/inkscape"
   xmlns:sodipodi="http://sodipodi.sourceforge.net/DTD/sodipodi-0.dtd"
   xmlns="http://www.w3.org/2000/svg"
   xmlns:svg="http://www.w3.org/2000/svg"><defs
     id="defs6"><clipPath
       clipPathUnits="userSpaceOnUse"
       id="clipPath16"><path
         d="M 0,33.494 H 253.49 V 0 H 0 Z"
         id="path14" /></clipPath></defs><sodipodi:namedview
     id="namedview4"
     pagecolor="#ffffff"
     bordercolor="#666666"
     borderopacity="1.0"
     inkscape:pageshadow="2"
     inkscape:pageopacity="0.0"
     inkscape:pagecheckerboard="0" /><g
     id="g8"
     inkscape:groupmode="layer"
     inkscape:label="a2z corp"
     transform="matrix(1.3333333,0,0,-1.3333333,0,44.6584)"><g
       id="g10"><g
         id="g12"
         clip-path="url(#clipPath16)"><g
           id="g18"
           transform="translate(8.6492,19.043)"><path
             d="m 0,0 c -0.611,-0.459 -1.35,-0.754 -1.897,-0.885 -1.801,-0.393 -2.508,-1.278 -2.508,-2.852 0,-1.343 0.482,-2.458 1.672,-2.458 1.19,0 2.733,0.787 2.733,2.721 z m -8.102,3.408 v 0.427 c 0,4.064 2.733,5.44 6.076,5.44 5.274,0 6.27,-2.228 6.27,-5.408 v -9.275 c 0,-1.639 0.097,-2.393 0.547,-3.409 H 0.547 C 0.257,-8.26 0.129,-7.571 0,-6.981 h -0.064 c -1.029,-1.836 -2.283,-2.295 -4.405,-2.295 -3.087,0 -4.18,2.688 -4.18,5.048 0,3.31 1.318,4.654 4.373,5.506 l 2.508,0.688 C -0.45,2.327 0,2.851 0,4.031 0,5.375 -0.579,6.194 -2.058,6.194 -3.408,6.194 -4.116,5.277 -4.116,3.9 V 3.408 Z"
             style="fill:#000000;fill-opacity:1;fill-rule:nonzero;stroke:none"
             id="path20" /></g><g
           id="g22"
           transform="translate(29.5484,10.2262)"><path
             d="m 0,0 h -14.019 c 0,4.13 1.64,6.981 5.016,10.161 l 1.865,1.769 c 2.026,1.869 2.379,2.917 2.379,5.31 0,1.934 -0.803,2.884 -2.25,2.884 -2.315,0 -2.54,-2.065 -2.573,-4.523 h -4.437 v 0.885 c 0,4.294 2.219,6.719 7.074,6.719 4.566,0 6.816,-2.327 6.816,-6.326 0,-3.015 -0.932,-4.981 -3.536,-7.374 L -6.238,7.08 C -7.588,5.834 -8.36,4.556 -8.585,3.671 H 0 Z"
             style="fill:#000000;fill-opacity:1;fill-rule:nonzero;stroke:none"
             id="path24" /></g><g
           id="g26"
           transform="translate(31.7991,13.7003)"><path
             d="M 0,0 6.913,10.488 H 0.322 v 3.671 H 12.154 V 10.685 L 5.241,0.197 h 6.913 V -3.474 L 0,-3.474 Z"
             style="fill:#000000;fill-opacity:1;fill-rule:nonzero;stroke:none"
             id="path28" /></g><g
           id="g30"
           transform="translate(7.435,7.4556)"><path
             d="m 0,0 c 1.751,-1.114 15.383,-9.195 28.806,0.075 0.094,0.065 0.613,0.224 0.816,-0.106 0.177,-0.268 0.08,-0.618 -0.083,-0.812 -1.308,-1.554 -7.827,-8.442 -18.89,-6.15 0,0 -6.357,1.461 -11.094,6.56 -0.046,0.049 -0.092,0.099 -0.137,0.149 0,0 -0.149,0.214 0.062,0.381 C -0.339,0.236 -0.124,0.079 0,0"
             style="fill:#fc9a1b;fill-opacity:1;fill-rule:nonzero;stroke:none"
             id="path32" /></g><g
           id="g34"
           transform="translate(57.1102,21.2747)"><path
             d="m 0,0 c 0,1.681 -0.323,3.491 -2.004,3.491 -2.198,0 -2.553,-1.939 -2.553,-5.947 0,-4.299 0.387,-6.077 2.392,-6.077 1.486,0 2.165,1.26 2.165,4.072 h 4.267 c 0,-4.557 -1.907,-7.111 -6.626,-7.111 -4.461,0 -6.659,2.166 -6.659,9.148 0,7.144 2.941,9.148 7.047,9.148 4.105,0 6.238,-2.619 6.238,-6.724 z"
             style="fill:#fc9a1b;fill-opacity:1;fill-rule:nonzero;stroke:none"
             id="path36" /></g><g
           id="g38"
           transform="translate(69.9739,12.7418)"><path
             d="m 0,0 c 1.811,0 2.392,1.778 2.392,6.109 0,4.331 -0.581,6.109 -2.392,6.109 -2.198,0 -2.392,-2.553 -2.392,-6.109 C -2.392,2.553 -2.198,0 0,0 M 0,15.257 C 5.366,15.354 6.853,12.154 6.853,6.109 6.853,0.161 5.107,-3.039 0,-3.039 c -5.366,-0.097 -6.853,3.103 -6.853,9.148 0,5.947 1.746,9.148 6.853,9.148"
             style="fill:#fc9a1b;fill-opacity:1;fill-rule:nonzero;stroke:none"
             id="path40" /></g><g
           id="g42"
           transform="translate(78.5701,27.5453)"><path
             d="m 0,0 h 4.267 v -2.326 h 0.064 c 0.906,1.681 2.166,2.779 4.008,2.779 0.259,0 0.55,-0.032 0.809,-0.064 V -3.879 C 8.695,-3.846 8.21,-3.814 7.758,-3.814 6.206,-3.814 4.46,-4.622 4.46,-6.949 V -17.39 H 0 Z"
             style="fill:#fc9a1b;fill-opacity:1;fill-rule:nonzero;stroke:none"
             id="path44" /></g><g
           id="g46"
           transform="translate(96.1528,13.1298)"><path
             d="M 0,0 C 1.94,0 2.328,1.939 2.328,5.721 2.328,9.503 1.94,11.442 0,11.442 -1.972,11.442 -2.36,9.503 -2.36,5.721 -2.36,1.939 -1.972,0 0,0 m -6.821,14.416 h 4.268 v -1.842 h 0.064 c 0.97,1.616 2.198,2.295 3.943,2.295 3.653,0 5.334,-2.683 5.334,-9.148 0,-6.465 -1.681,-9.148 -5.334,-9.148 -1.681,0 -2.812,0.679 -3.749,2.069 H -2.36 v -7.305 h -4.461 z"
             style="fill:#fc9a1b;fill-opacity:1;fill-rule:nonzero;stroke:none"
             id="path48" /></g><g
           id="g50"
           transform="translate(111.764,12.7418)"><path
             d="M 0,0 C 1.81,0 2.391,1.778 2.391,6.109 2.391,10.44 1.81,12.218 0,12.218 -2.199,12.218 -2.392,9.665 -2.392,6.109 -2.392,2.553 -2.199,0 0,0 M 0,15.257 C 5.365,15.354 6.852,12.154 6.852,6.109 6.852,0.161 5.106,-3.039 0,-3.039 c -5.366,-0.097 -6.853,3.103 -6.853,9.148 0,5.947 1.746,9.148 6.853,9.148"
             style="fill:#fc9a1b;fill-opacity:1;fill-rule:nonzero;stroke:none"
             id="path52" /></g><g
           id="g54"
           transform="translate(120.3602,27.5453)"><path
             d="m 0,0 h 4.268 v -2.326 h 0.064 c 0.904,1.681 2.165,2.779 4.009,2.779 0.257,0 0.548,-0.032 0.807,-0.064 v -4.268 c -0.452,0.033 -0.937,0.065 -1.39,0.065 -1.552,0 -3.297,-0.808 -3.297,-3.135 V -17.39 H 0 Z"
             style="fill:#fc9a1b;fill-opacity:1;fill-rule:nonzero;stroke:none"
             id="path56" /></g><g
           id="g58"
           transform="translate(139.2368,18.8504)"><path
             d="m 0,0 c -0.614,-0.452 -1.358,-0.743 -1.908,-0.872 -1.809,-0.388 -2.52,-1.261 -2.52,-2.812 0,-1.326 0.484,-2.425 1.68,-2.425 1.196,0 2.748,0.776 2.748,2.683 z m -8.146,3.362 v 0.42 c 0,4.009 2.747,5.366 6.11,5.366 5.3,0 6.302,-2.198 6.302,-5.334 v -9.147 c 0,-1.617 0.098,-2.36 0.55,-3.362 H 0.549 c -0.29,0.55 -0.42,1.229 -0.549,1.81 h -0.064 c -1.035,-1.81 -2.296,-2.262 -4.429,-2.262 -3.103,0 -4.202,2.65 -4.202,4.977 0,3.266 1.324,4.59 4.395,5.431 L -1.778,1.94 C -0.452,2.295 0,2.812 0,3.976 0,5.302 -0.582,6.11 -2.069,6.11 -3.426,6.11 -4.137,5.204 -4.137,3.847 V 3.362 Z"
             style="fill:#fc9a1b;fill-opacity:1;fill-rule:nonzero;stroke:none"
             id="path60" /></g><g
           id="g62"
           transform="translate(147.6385,32.524)"><path
             d="M 0,0 H 4.461 V -4.979 H 7.047 V -8.016 H 4.461 v -9.407 c 0,-1.358 0.291,-1.907 1.584,-1.907 0.356,0 0.711,0.032 1.002,0.065 v -3.103 c -0.97,-0.097 -1.875,-0.195 -2.91,-0.195 -3.49,0 -4.137,1.068 -4.137,4.591 v 9.956 h -2.262 v 3.037 H 0 Z"
             style="fill:#fc9a1b;fill-opacity:1;fill-rule:nonzero;stroke:none"
             id="path64" /></g><path
           d="m 156.397,27.545 h 4.461 v -17.39 h -4.461 z m 0,5.949 h 4.461 V 29.68 h -4.461 z"
           style="fill:#fc9a1b;fill-opacity:1;fill-rule:nonzero;stroke:none"
           id="path66" /><g
           id="g68"
           transform="translate(169.6162,12.7418)"><path
             d="m 0,0 c 1.811,0 2.392,1.778 2.392,6.109 0,4.331 -0.581,6.109 -2.392,6.109 -2.198,0 -2.391,-2.553 -2.391,-6.109 C -2.391,2.553 -2.198,0 0,0 M 0,15.257 C 5.366,15.354 6.853,12.154 6.853,6.109 6.853,0.161 5.107,-3.039 0,-3.039 c -5.365,-0.097 -6.852,3.103 -6.852,9.148 0,5.947 1.746,9.148 6.852,9.148"
             style="fill:#fc9a1b;fill-opacity:1;fill-rule:nonzero;stroke:none"
             id="path70" /></g><g
           id="g72"
           transform="translate(178.2124,27.5453)"><path
             d="m 0,0 h 4.267 v -2.035 h 0.065 c 0.938,1.713 2.553,2.488 4.428,2.488 2.78,0 4.429,-1.519 4.429,-4.946 V -17.39 H 8.728 v 11.993 c 0,1.745 -0.582,2.424 -1.907,2.424 -1.519,0 -2.36,-0.938 -2.36,-2.878 V -17.39 H 0 Z"
             style="fill:#fc9a1b;fill-opacity:1;fill-rule:nonzero;stroke:none"
             id="path74" /></g><path
           d="m 198.251,10.155 h -4.266 v 5.043 h 4.266 z"
           style="fill:#000000;fill-opacity:1;fill-rule:nonzero;stroke:none"
           id="path76" /><g
           id="g78"
           transform="translate(209.8559,21.2747)"><path
             d="m 0,0 c 0,1.681 -0.323,3.491 -2.004,3.491 -2.199,0 -2.555,-1.939 -2.555,-5.947 0,-4.299 0.388,-6.077 2.393,-6.077 1.487,0 2.166,1.26 2.166,4.072 h 4.266 c 0,-4.557 -1.907,-7.111 -6.626,-7.111 -4.461,0 -6.659,2.166 -6.659,9.148 0,7.144 2.942,9.148 7.047,9.148 4.105,0 6.238,-2.619 6.238,-6.724 z"
             style="fill:#000000;fill-opacity:1;fill-rule:nonzero;stroke:none"
             id="path80" /></g><g
           id="g82"
           transform="translate(222.7185,12.7418)"><path
             d="m 0,0 c 1.811,0 2.392,1.778 2.392,6.109 0,4.331 -0.581,6.109 -2.392,6.109 -2.198,0 -2.391,-2.553 -2.391,-6.109 C -2.391,2.553 -2.198,0 0,0 M 0,15.257 C 5.366,15.354 6.853,12.154 6.853,6.109 6.853,0.161 5.107,-3.039 0,-3.039 c -5.365,-0.097 -6.852,3.103 -6.852,9.148 0,5.947 1.746,9.148 6.852,9.148"
             style="fill:#000000;fill-opacity:1;fill-rule:nonzero;stroke:none"
             id="path84" /></g><g
           id="g86"
           transform="translate(231.9612,27.5453)"><path
             d="m 0,0 h 4.268 v -1.778 h 0.064 c 1.131,1.585 2.521,2.231 4.396,2.231 2.037,0 3.524,-1.002 4.008,-2.779 H 12.8 c 0.679,1.842 2.296,2.779 4.397,2.779 2.942,0 4.332,-1.843 4.332,-5.204 V -17.39 h -4.461 v 12.154 c 0,1.454 -0.486,2.263 -1.746,2.263 -1.422,0 -2.327,-0.97 -2.327,-2.974 V -17.39 H 8.534 v 12.154 c 0,1.454 -0.485,2.263 -1.746,2.263 -1.422,0 -2.327,-0.97 -2.327,-2.974 V -17.39 H 0 Z"
             style="fill:#000000;fill-opacity:1;fill-rule:nonzero;stroke:none"
             id="path88" /></g></g></g></g></svg>
